<mxfile host="Electron" agent="Mozilla/5.0 (Windows NT 10.0; Win64; x64) AppleWebKit/537.36 (KHTML, like Gecko) draw.io/24.7.17 Chrome/128.0.6613.36 Electron/32.0.1 Safari/537.36" version="24.7.17">
  <diagram id="C5RBs43oDa-KdzZeNtuy" name="Page-1">
    <mxGraphModel dx="1098" dy="820" grid="1" gridSize="10" guides="1" tooltips="1" connect="1" arrows="1" fold="1" page="1" pageScale="1" pageWidth="1100" pageHeight="850" math="0" shadow="0">
      <root>
        <mxCell id="WIyWlLk6GJQsqaUBKTNV-0" />
        <mxCell id="WIyWlLk6GJQsqaUBKTNV-1" parent="WIyWlLk6GJQsqaUBKTNV-0" />
        <mxCell id="Xk16bxcgXTaZhjIG-4d5-18" value="" style="rounded=0;whiteSpace=wrap;html=1;strokeColor=none;movable=0;resizable=0;rotatable=0;deletable=0;editable=0;locked=1;connectable=0;" vertex="1" parent="WIyWlLk6GJQsqaUBKTNV-1">
          <mxGeometry x="20" y="30" width="1330" height="800" as="geometry" />
        </mxCell>
        <mxCell id="Xk16bxcgXTaZhjIG-4d5-5" style="edgeStyle=orthogonalEdgeStyle;rounded=0;orthogonalLoop=1;jettySize=auto;html=1;exitX=0.5;exitY=1;exitDx=0;exitDy=0;strokeWidth=3;" edge="1" parent="WIyWlLk6GJQsqaUBKTNV-1" source="Xk16bxcgXTaZhjIG-4d5-1" target="Xk16bxcgXTaZhjIG-4d5-2">
          <mxGeometry relative="1" as="geometry" />
        </mxCell>
        <mxCell id="Xk16bxcgXTaZhjIG-4d5-1" value="&lt;font style=&quot;font-size: 20px;&quot;&gt;Begin&lt;/font&gt;" style="ellipse;whiteSpace=wrap;html=1;" vertex="1" parent="WIyWlLk6GJQsqaUBKTNV-1">
          <mxGeometry x="160" y="110" width="120" height="80" as="geometry" />
        </mxCell>
        <mxCell id="Xk16bxcgXTaZhjIG-4d5-4" style="edgeStyle=orthogonalEdgeStyle;rounded=0;orthogonalLoop=1;jettySize=auto;html=1;strokeWidth=3;" edge="1" parent="WIyWlLk6GJQsqaUBKTNV-1" source="Xk16bxcgXTaZhjIG-4d5-2" target="Xk16bxcgXTaZhjIG-4d5-3">
          <mxGeometry relative="1" as="geometry" />
        </mxCell>
        <mxCell id="Xk16bxcgXTaZhjIG-4d5-6" value="Text" style="edgeLabel;html=1;align=center;verticalAlign=middle;resizable=0;points=[];" vertex="1" connectable="0" parent="Xk16bxcgXTaZhjIG-4d5-4">
          <mxGeometry x="-0.1158" y="1" relative="1" as="geometry">
            <mxPoint as="offset" />
          </mxGeometry>
        </mxCell>
        <mxCell id="Xk16bxcgXTaZhjIG-4d5-7" value="&lt;font style=&quot;font-size: 20px;&quot;&gt;Yes&lt;/font&gt;" style="edgeLabel;html=1;align=center;verticalAlign=middle;resizable=0;points=[];" vertex="1" connectable="0" parent="Xk16bxcgXTaZhjIG-4d5-4">
          <mxGeometry x="-0.1579" y="4" relative="1" as="geometry">
            <mxPoint as="offset" />
          </mxGeometry>
        </mxCell>
        <mxCell id="Xk16bxcgXTaZhjIG-4d5-11" style="edgeStyle=orthogonalEdgeStyle;rounded=0;orthogonalLoop=1;jettySize=auto;html=1;exitX=0.5;exitY=1;exitDx=0;exitDy=0;entryX=0.5;entryY=0;entryDx=0;entryDy=0;strokeWidth=3;" edge="1" parent="WIyWlLk6GJQsqaUBKTNV-1" source="Xk16bxcgXTaZhjIG-4d5-2" target="Xk16bxcgXTaZhjIG-4d5-10">
          <mxGeometry relative="1" as="geometry" />
        </mxCell>
        <mxCell id="Xk16bxcgXTaZhjIG-4d5-12" value="&lt;font style=&quot;font-size: 20px;&quot;&gt;No&lt;/font&gt;" style="edgeLabel;html=1;align=center;verticalAlign=middle;resizable=0;points=[];" vertex="1" connectable="0" parent="Xk16bxcgXTaZhjIG-4d5-11">
          <mxGeometry x="-0.0526" y="1" relative="1" as="geometry">
            <mxPoint as="offset" />
          </mxGeometry>
        </mxCell>
        <mxCell id="Xk16bxcgXTaZhjIG-4d5-2" value="&lt;font style=&quot;font-size: 20px;&quot;&gt;Inventory Enough?&lt;/font&gt;" style="rhombus;whiteSpace=wrap;html=1;" vertex="1" parent="WIyWlLk6GJQsqaUBKTNV-1">
          <mxGeometry x="95" y="240" width="250" height="90" as="geometry" />
        </mxCell>
        <mxCell id="Xk16bxcgXTaZhjIG-4d5-16" style="edgeStyle=orthogonalEdgeStyle;rounded=0;orthogonalLoop=1;jettySize=auto;html=1;exitX=1;exitY=0.5;exitDx=0;exitDy=0;strokeWidth=3;" edge="1" parent="WIyWlLk6GJQsqaUBKTNV-1" source="Xk16bxcgXTaZhjIG-4d5-3" target="Xk16bxcgXTaZhjIG-4d5-15">
          <mxGeometry relative="1" as="geometry" />
        </mxCell>
        <mxCell id="Xk16bxcgXTaZhjIG-4d5-17" value="&lt;font style=&quot;font-size: 20px;&quot;&gt;No&lt;/font&gt;" style="edgeLabel;html=1;align=center;verticalAlign=middle;resizable=0;points=[];" vertex="1" connectable="0" parent="Xk16bxcgXTaZhjIG-4d5-16">
          <mxGeometry x="-0.0182" y="1" relative="1" as="geometry">
            <mxPoint as="offset" />
          </mxGeometry>
        </mxCell>
        <mxCell id="Xk16bxcgXTaZhjIG-4d5-3" value="&lt;font style=&quot;font-size: 20px;&quot;&gt;User Ordered?&lt;/font&gt;" style="rhombus;whiteSpace=wrap;html=1;" vertex="1" parent="WIyWlLk6GJQsqaUBKTNV-1">
          <mxGeometry x="440" y="240" width="250" height="90" as="geometry" />
        </mxCell>
        <mxCell id="Xk16bxcgXTaZhjIG-4d5-10" value="&lt;font style=&quot;font-size: 20px;&quot;&gt;Order Failed&lt;/font&gt;" style="ellipse;whiteSpace=wrap;html=1;" vertex="1" parent="WIyWlLk6GJQsqaUBKTNV-1">
          <mxGeometry x="150" y="440" width="140" height="80" as="geometry" />
        </mxCell>
        <mxCell id="Xk16bxcgXTaZhjIG-4d5-13" style="edgeStyle=orthogonalEdgeStyle;rounded=0;orthogonalLoop=1;jettySize=auto;html=1;exitX=0.5;exitY=1;exitDx=0;exitDy=0;entryX=1;entryY=0.588;entryDx=0;entryDy=0;entryPerimeter=0;strokeWidth=3;" edge="1" parent="WIyWlLk6GJQsqaUBKTNV-1" source="Xk16bxcgXTaZhjIG-4d5-3" target="Xk16bxcgXTaZhjIG-4d5-10">
          <mxGeometry relative="1" as="geometry" />
        </mxCell>
        <mxCell id="Xk16bxcgXTaZhjIG-4d5-14" value="&lt;font style=&quot;font-size: 20px;&quot;&gt;Yes&lt;/font&gt;" style="edgeLabel;html=1;align=center;verticalAlign=middle;resizable=0;points=[];" vertex="1" connectable="0" parent="Xk16bxcgXTaZhjIG-4d5-13">
          <mxGeometry x="-0.7266" y="-2" relative="1" as="geometry">
            <mxPoint as="offset" />
          </mxGeometry>
        </mxCell>
        <mxCell id="Xk16bxcgXTaZhjIG-4d5-20" style="edgeStyle=orthogonalEdgeStyle;rounded=0;orthogonalLoop=1;jettySize=auto;html=1;exitX=0.5;exitY=1;exitDx=0;exitDy=0;strokeWidth=3;" edge="1" parent="WIyWlLk6GJQsqaUBKTNV-1" source="Xk16bxcgXTaZhjIG-4d5-15" target="Xk16bxcgXTaZhjIG-4d5-19">
          <mxGeometry relative="1" as="geometry" />
        </mxCell>
        <mxCell id="Xk16bxcgXTaZhjIG-4d5-15" value="&lt;font style=&quot;font-size: 20px;&quot;&gt;Deduct Inventory&lt;/font&gt;" style="rounded=1;whiteSpace=wrap;html=1;" vertex="1" parent="WIyWlLk6GJQsqaUBKTNV-1">
          <mxGeometry x="800" y="255" width="190" height="60" as="geometry" />
        </mxCell>
        <mxCell id="Xk16bxcgXTaZhjIG-4d5-24" style="edgeStyle=orthogonalEdgeStyle;rounded=0;orthogonalLoop=1;jettySize=auto;html=1;exitX=0.5;exitY=1;exitDx=0;exitDy=0;entryX=0.5;entryY=0;entryDx=0;entryDy=0;strokeWidth=3;" edge="1" parent="WIyWlLk6GJQsqaUBKTNV-1" source="Xk16bxcgXTaZhjIG-4d5-19" target="Xk16bxcgXTaZhjIG-4d5-21">
          <mxGeometry relative="1" as="geometry" />
        </mxCell>
        <mxCell id="Xk16bxcgXTaZhjIG-4d5-19" value="&lt;font style=&quot;font-size: 20px;&quot;&gt;Add userID to the current coupon set&lt;/font&gt;" style="rounded=1;whiteSpace=wrap;html=1;" vertex="1" parent="WIyWlLk6GJQsqaUBKTNV-1">
          <mxGeometry x="795" y="390" width="200" height="70" as="geometry" />
        </mxCell>
        <mxCell id="Xk16bxcgXTaZhjIG-4d5-25" style="edgeStyle=orthogonalEdgeStyle;rounded=0;orthogonalLoop=1;jettySize=auto;html=1;exitX=0.5;exitY=1;exitDx=0;exitDy=0;entryX=0.5;entryY=0;entryDx=0;entryDy=0;strokeWidth=3;" edge="1" parent="WIyWlLk6GJQsqaUBKTNV-1" source="Xk16bxcgXTaZhjIG-4d5-21" target="Xk16bxcgXTaZhjIG-4d5-22">
          <mxGeometry relative="1" as="geometry" />
        </mxCell>
        <mxCell id="Xk16bxcgXTaZhjIG-4d5-21" value="&lt;font style=&quot;font-size: 20px;&quot;&gt;Generate orderID&lt;/font&gt;" style="rounded=1;whiteSpace=wrap;html=1;" vertex="1" parent="WIyWlLk6GJQsqaUBKTNV-1">
          <mxGeometry x="795" y="530" width="200" height="70" as="geometry" />
        </mxCell>
        <mxCell id="Xk16bxcgXTaZhjIG-4d5-28" style="edgeStyle=orthogonalEdgeStyle;rounded=0;orthogonalLoop=1;jettySize=auto;html=1;exitX=0;exitY=0.5;exitDx=0;exitDy=0;strokeWidth=3;" edge="1" parent="WIyWlLk6GJQsqaUBKTNV-1" source="Xk16bxcgXTaZhjIG-4d5-22" target="Xk16bxcgXTaZhjIG-4d5-27">
          <mxGeometry relative="1" as="geometry" />
        </mxCell>
        <mxCell id="Xk16bxcgXTaZhjIG-4d5-22" value="&lt;font style=&quot;font-size: 20px;&quot;&gt;Add Record to User Unpaid Order Set and Unpaid Orders Zset&lt;/font&gt;" style="rounded=1;whiteSpace=wrap;html=1;" vertex="1" parent="WIyWlLk6GJQsqaUBKTNV-1">
          <mxGeometry x="792.5" y="660" width="205" height="80" as="geometry" />
        </mxCell>
        <mxCell id="Xk16bxcgXTaZhjIG-4d5-27" value="&lt;font style=&quot;font-size: 20px;&quot;&gt;Purchase Success and Wait for the Payment&lt;/font&gt;" style="ellipse;whiteSpace=wrap;html=1;" vertex="1" parent="WIyWlLk6GJQsqaUBKTNV-1">
          <mxGeometry x="445" y="645" width="240" height="110" as="geometry" />
        </mxCell>
        <mxCell id="Xk16bxcgXTaZhjIG-4d5-29" value="&lt;font style=&quot;font-size: 20px;&quot;&gt;Lua Script&lt;/font&gt;" style="rounded=0;whiteSpace=wrap;html=1;strokeColor=none;" vertex="1" parent="WIyWlLk6GJQsqaUBKTNV-1">
          <mxGeometry x="550" y="50" width="120" height="60" as="geometry" />
        </mxCell>
      </root>
    </mxGraphModel>
  </diagram>
</mxfile>
